<?xml version="1.0" encoding="UTF-8"?>
<svg width="275px" height="90px" viewBox="0 0 275 90" version="1.1" xmlns="http://www.w3.org/2000/svg" xmlns:xlink="http://www.w3.org/1999/xlink">
    <title>icon-sprite-stores@1x</title>
    <g id="Dark-MVP" stroke="none" stroke-width="1" fill="none" fill-rule="evenodd">
        <g id="icon-sprite-stores">
            <g>
                <g id="App-Store" transform="translate(140.000000, 0.000000)">
                    <g id="Group">
                        <path d="M135,35.9903685 C135,38.2056114 133.262081,40 131.112496,40 L3.89257334,40 C1.74400264,40 0,38.2056114 0,35.9903685 L0,4.014866 C0,1.80067002 1.74400264,0 3.89257334,0 L131.111482,0 C133.262081,0 135,1.80067002 135,4.014866 L135,35.9903685 L135,35.9903685 L135,35.9903685 Z" id="Shape" fill="#192133"></path>
                        <g id="Shape" transform="translate(12.000000, 6.000000)" fill="#FFFFFF" fill-rule="nonzero">
                            <path d="M18.128,13.784 C18.099,10.561 20.767,8.993 20.889,8.92 C19.378,6.717 17.036,6.416 16.213,6.392 C14.246,6.185 12.338,7.569 11.336,7.569 C10.314,7.569 8.771,6.412 7.108,6.446 C4.968,6.479 2.966,7.718 1.868,9.642 C-0.398,13.565 1.292,19.33 3.463,22.501 C4.549,24.054 5.818,25.788 7.479,25.727 C9.104,25.66 9.711,24.691 11.672,24.691 C13.615,24.691 14.185,25.727 15.879,25.688 C17.623,25.66 18.721,24.128 19.769,22.561 C21.024,20.781 21.528,19.028 21.548,18.938 C21.507,18.924 18.161,17.647 18.128,13.784 L18.128,13.784 Z" id="Path"></path>
                            <path d="M14.928,4.306 C15.802,3.213 16.4,1.726 16.234,0.217 C14.969,0.273 13.387,1.092 12.476,2.161 C11.67,3.103 10.95,4.647 11.136,6.099 C12.557,6.205 14.016,5.382 14.928,4.306 L14.928,4.306 Z" id="Path"></path>
                        </g>
                        <g id="Shape" transform="translate(42.000000, 17.000000)" fill="#B1C3D3">
                            <path d="M11.645,13.504 L9.374,13.504 L8.13,9.595 L3.806,9.595 L2.621,13.504 L0.41,13.504 L4.694,0.196 L7.34,0.196 L11.645,13.504 L11.645,13.504 Z M7.755,7.955 L6.63,4.48 C6.511,4.125 6.288,3.289 5.959,1.973 L5.919,1.973 C5.788,2.539 5.577,3.375 5.287,4.48 L4.182,7.955 L7.755,7.955 L7.755,7.955 Z"></path>
                            <path d="M22.662,8.588 C22.662,10.22 22.221,11.51 21.339,12.457 C20.549,13.3 19.568,13.721 18.397,13.721 C17.133,13.721 16.225,13.267 15.672,12.359 L15.632,12.359 L15.632,17.414 L13.5,17.414 L13.5,7.067 C13.5,6.041 13.473,4.988 13.421,3.908 L15.296,3.908 L15.415,5.429 L15.455,5.429 C16.166,4.283 17.245,3.711 18.693,3.711 C19.825,3.711 20.77,4.158 21.526,5.053 C22.284,5.949 22.662,7.127 22.662,8.588 L22.662,8.588 Z M20.49,8.666 C20.49,7.732 20.28,6.962 19.858,6.356 C19.397,5.724 18.778,5.408 18.002,5.408 C17.476,5.408 16.998,5.584 16.571,5.931 C16.143,6.281 15.863,6.738 15.732,7.304 C15.666,7.568 15.633,7.784 15.633,7.954 L15.633,9.554 C15.633,10.252 15.847,10.841 16.275,11.322 C16.703,11.803 17.259,12.043 17.943,12.043 C18.746,12.043 19.371,11.733 19.818,11.115 C20.266,10.496 20.49,9.68 20.49,8.666 L20.49,8.666 Z"></path>
                            <path d="M33.699,8.588 C33.699,10.22 33.258,11.51 32.375,12.457 C31.586,13.3 30.605,13.721 29.434,13.721 C28.17,13.721 27.262,13.267 26.71,12.359 L26.67,12.359 L26.67,17.414 L24.538,17.414 L24.538,7.067 C24.538,6.041 24.511,4.988 24.459,3.908 L26.334,3.908 L26.453,5.429 L26.493,5.429 C27.203,4.283 28.282,3.711 29.731,3.711 C30.862,3.711 31.807,4.158 32.565,5.053 C33.32,5.949 33.699,7.127 33.699,8.588 L33.699,8.588 Z M31.527,8.666 C31.527,7.732 31.316,6.962 30.894,6.356 C30.433,5.724 29.816,5.408 29.039,5.408 C28.512,5.408 28.035,5.584 27.607,5.931 C27.179,6.281 26.9,6.738 26.769,7.304 C26.704,7.568 26.67,7.784 26.67,7.954 L26.67,9.554 C26.67,10.252 26.884,10.841 27.31,11.322 C27.738,11.802 28.294,12.043 28.98,12.043 C29.783,12.043 30.408,11.733 30.855,11.115 C31.303,10.496 31.527,9.68 31.527,8.666 L31.527,8.666 Z"></path>
                            <path d="M46.039,9.772 C46.039,10.904 45.646,11.825 44.857,12.536 C43.99,13.313 42.783,13.701 41.232,13.701 C39.8,13.701 38.652,13.425 37.783,12.872 L38.277,11.095 C39.213,11.661 40.24,11.945 41.359,11.945 C42.162,11.945 42.787,11.763 43.236,11.401 C43.683,11.039 43.906,10.553 43.906,9.947 C43.906,9.407 43.722,8.952 43.353,8.583 C42.986,8.214 42.373,7.871 41.517,7.554 C39.187,6.685 38.023,5.412 38.023,3.738 C38.023,2.644 38.431,1.747 39.248,1.049 C40.062,0.35 41.148,0.001 42.506,0.001 C43.717,0.001 44.723,0.212 45.526,0.633 L44.993,2.371 C44.243,1.963 43.395,1.759 42.446,1.759 C41.696,1.759 41.11,1.944 40.69,2.312 C40.335,2.641 40.157,3.042 40.157,3.517 C40.157,4.043 40.36,4.478 40.768,4.82 C41.123,5.136 41.768,5.478 42.704,5.847 C43.849,6.308 44.69,6.847 45.231,7.465 C45.77,8.081 46.039,8.852 46.039,9.772 L46.039,9.772 Z" id="Path"></path>
                            <path d="M53.088,5.508 L50.738,5.508 L50.738,10.167 C50.738,11.352 51.152,11.944 51.982,11.944 C52.363,11.944 52.679,11.911 52.929,11.845 L52.988,13.464 C52.568,13.621 52.015,13.7 51.33,13.7 C50.488,13.7 49.83,13.443 49.355,12.93 C48.882,12.416 48.644,11.554 48.644,10.343 L48.644,5.506 L47.244,5.506 L47.244,3.906 L48.644,3.906 L48.644,2.149 L50.738,1.517 L50.738,3.906 L53.088,3.906 L53.088,5.508 L53.088,5.508 Z" id="Path"></path>
                            <path d="M63.691,8.627 C63.691,10.102 63.269,11.313 62.427,12.26 C61.544,13.235 60.372,13.721 58.911,13.721 C57.503,13.721 56.382,13.254 55.546,12.32 C54.71,11.386 54.292,10.207 54.292,8.786 C54.292,7.299 54.722,6.081 55.585,5.134 C56.446,4.186 57.608,3.712 59.069,3.712 C60.477,3.712 61.61,4.179 62.465,5.114 C63.283,6.021 63.691,7.192 63.691,8.627 L63.691,8.627 Z M61.479,8.696 C61.479,7.811 61.29,7.052 60.907,6.419 C60.46,5.653 59.821,5.271 58.993,5.271 C58.136,5.271 57.485,5.654 57.038,6.419 C56.655,7.053 56.466,7.824 56.466,8.736 C56.466,9.621 56.655,10.38 57.038,11.012 C57.499,11.778 58.143,12.16 58.974,12.16 C59.788,12.16 60.427,11.77 60.888,10.992 C61.281,10.347 61.479,9.58 61.479,8.696 L61.479,8.696 Z"></path>
                            <path d="M70.621,5.783 C70.41,5.744 70.185,5.724 69.949,5.724 C69.199,5.724 68.619,6.007 68.211,6.574 C67.856,7.074 67.678,7.706 67.678,8.469 L67.678,13.504 L65.547,13.504 L65.567,6.93 C65.567,5.824 65.54,4.817 65.487,3.909 L67.344,3.909 L67.422,5.745 L67.481,5.745 C67.706,5.114 68.061,4.606 68.547,4.225 C69.022,3.882 69.535,3.711 70.088,3.711 C70.285,3.711 70.463,3.725 70.621,3.75 L70.621,5.783 L70.621,5.783 Z" id="Path"></path>
                            <path d="M80.156,8.252 C80.156,8.634 80.131,8.956 80.078,9.219 L73.682,9.219 C73.707,10.167 74.016,10.892 74.61,11.392 C75.149,11.839 75.846,12.063 76.702,12.063 C77.649,12.063 78.513,11.912 79.29,11.609 L79.624,13.089 C78.716,13.485 77.644,13.682 76.407,13.682 C74.919,13.682 73.751,13.244 72.901,12.369 C72.053,11.494 71.628,10.319 71.628,8.845 C71.628,7.398 72.023,6.193 72.814,5.232 C73.642,4.206 74.761,3.693 76.169,3.693 C77.552,3.693 78.599,4.206 79.31,5.232 C79.873,6.047 80.156,7.055 80.156,8.252 L80.156,8.252 Z M78.123,7.699 C78.137,7.067 77.998,6.521 77.709,6.06 C77.34,5.467 76.773,5.171 76.01,5.171 C75.313,5.171 74.746,5.46 74.313,6.04 C73.958,6.501 73.747,7.054 73.682,7.698 L78.123,7.698 L78.123,7.699 Z"></path>
                        </g>
                        <g id="Shape" transform="translate(43.000000, 6.000000)" fill="#B1C3D3">
                            <path d="M6.05,4.009 C6.05,5.186 5.697,6.072 4.992,6.667 C4.339,7.216 3.411,7.491 2.209,7.491 C1.613,7.491 1.103,7.465 0.676,7.413 L0.676,0.982 C1.233,0.892 1.833,0.846 2.481,0.846 C3.626,0.846 4.489,1.095 5.071,1.593 C5.723,2.156 6.05,2.961 6.05,4.009 L6.05,4.009 Z M4.945,4.038 C4.945,3.275 4.743,2.69 4.339,2.282 C3.935,1.875 3.345,1.671 2.568,1.671 C2.238,1.671 1.957,1.693 1.724,1.739 L1.724,6.628 C1.853,6.648 2.089,6.657 2.432,6.657 C3.234,6.657 3.853,6.434 4.289,5.988 C4.725,5.542 4.945,4.892 4.945,4.038 L4.945,4.038 Z"></path>
                            <path d="M11.909,5.037 C11.909,5.762 11.702,6.356 11.288,6.822 C10.854,7.301 10.279,7.54 9.561,7.54 C8.869,7.54 8.318,7.311 7.907,6.851 C7.497,6.392 7.292,5.813 7.292,5.115 C7.292,4.385 7.503,3.786 7.927,3.321 C8.351,2.856 8.921,2.623 9.639,2.623 C10.331,2.623 10.887,2.852 11.308,3.311 C11.708,3.757 11.909,4.333 11.909,5.037 L11.909,5.037 Z M10.822,5.071 C10.822,4.636 10.728,4.263 10.541,3.952 C10.321,3.576 10.008,3.388 9.601,3.388 C9.18,3.388 8.86,3.576 8.64,3.952 C8.452,4.263 8.359,4.642 8.359,5.09 C8.359,5.525 8.453,5.898 8.64,6.209 C8.867,6.585 9.183,6.773 9.591,6.773 C9.991,6.773 10.305,6.582 10.531,6.199 C10.725,5.882 10.822,5.506 10.822,5.071 L10.822,5.071 Z"></path>
                            <path d="M19.765,2.719 L18.29,7.433 L17.33,7.433 L16.719,5.386 C16.564,4.875 16.438,4.367 16.34,3.863 L16.321,3.863 C16.23,4.381 16.104,4.888 15.942,5.386 L15.293,7.433 L14.322,7.433 L12.935,2.719 L14.012,2.719 L14.545,4.96 C14.674,5.49 14.78,5.995 14.865,6.473 L14.884,6.473 C14.962,6.079 15.091,5.577 15.273,4.97 L15.942,2.72 L16.796,2.72 L17.437,4.922 C17.592,5.459 17.718,5.976 17.815,6.474 L17.844,6.474 C17.915,5.989 18.022,5.472 18.164,4.922 L18.736,2.72 L19.765,2.72 L19.765,2.719 Z" id="Path"></path>
                            <path d="M25.198,7.433 L24.15,7.433 L24.15,4.733 C24.15,3.901 23.834,3.485 23.2,3.485 C22.889,3.485 22.638,3.599 22.443,3.828 C22.25,4.057 22.152,4.327 22.152,4.636 L22.152,7.432 L21.104,7.432 L21.104,4.066 C21.104,3.652 21.091,3.203 21.066,2.717 L21.987,2.717 L22.036,3.454 L22.065,3.454 C22.187,3.225 22.369,3.036 22.608,2.885 C22.892,2.709 23.21,2.62 23.558,2.62 C23.998,2.62 24.364,2.762 24.655,3.047 C25.017,3.396 25.198,3.917 25.198,4.609 L25.198,7.433 L25.198,7.433 Z" id="Path"></path>
                            <polygon id="Path" points="28.088 7.433 27.041 7.433 27.041 0.556 28.088 0.556"></polygon>
                            <path d="M34.258,5.037 C34.258,5.762 34.051,6.356 33.637,6.822 C33.203,7.301 32.627,7.54 31.91,7.54 C31.217,7.54 30.666,7.311 30.256,6.851 C29.846,6.392 29.641,5.813 29.641,5.115 C29.641,4.385 29.852,3.786 30.276,3.321 C30.7,2.856 31.27,2.623 31.987,2.623 C32.68,2.623 33.235,2.852 33.657,3.311 C34.057,3.757 34.258,4.333 34.258,5.037 L34.258,5.037 Z M33.17,5.071 C33.17,4.636 33.076,4.263 32.889,3.952 C32.67,3.576 32.356,3.388 31.95,3.388 C31.528,3.388 31.208,3.576 30.989,3.952 C30.801,4.263 30.708,4.642 30.708,5.09 C30.708,5.525 30.802,5.898 30.989,6.209 C31.216,6.585 31.532,6.773 31.94,6.773 C32.34,6.773 32.653,6.582 32.879,6.199 C33.074,5.882 33.17,5.506 33.17,5.071 L33.17,5.071 Z"></path>
                            <path d="M39.33,7.433 L38.389,7.433 L38.311,6.89 L38.282,6.89 C37.96,7.323 37.501,7.54 36.905,7.54 C36.46,7.54 36.1,7.397 35.829,7.113 C35.583,6.855 35.46,6.534 35.46,6.153 C35.46,5.577 35.7,5.138 36.183,4.834 C36.665,4.53 37.343,4.381 38.216,4.388 L38.216,4.3 C38.216,3.679 37.89,3.369 37.237,3.369 C36.772,3.369 36.362,3.486 36.008,3.718 L35.795,3.03 C36.233,2.759 36.774,2.623 37.412,2.623 C38.644,2.623 39.262,3.273 39.262,4.573 L39.262,6.309 C39.262,6.78 39.285,7.155 39.33,7.433 L39.33,7.433 Z M38.242,5.813 L38.242,5.086 C37.086,5.066 36.508,5.383 36.508,6.036 C36.508,6.282 36.574,6.466 36.709,6.589 C36.844,6.712 37.016,6.773 37.221,6.773 C37.451,6.773 37.666,6.7 37.862,6.555 C38.059,6.409 38.18,6.224 38.225,5.997 C38.236,5.946 38.242,5.884 38.242,5.813 L38.242,5.813 Z"></path>
                            <path d="M45.285,7.433 L44.355,7.433 L44.306,6.676 L44.277,6.676 C43.98,7.252 43.474,7.54 42.763,7.54 C42.195,7.54 41.722,7.317 41.347,6.871 C40.972,6.425 40.785,5.846 40.785,5.135 C40.785,4.372 40.988,3.754 41.396,3.282 C41.791,2.842 42.275,2.622 42.851,2.622 C43.484,2.622 43.927,2.835 44.179,3.262 L44.199,3.262 L44.199,0.556 L45.248,0.556 L45.248,6.163 C45.248,6.622 45.26,7.045 45.285,7.433 L45.285,7.433 Z M44.199,5.445 L44.199,4.659 C44.199,4.523 44.189,4.413 44.17,4.329 C44.111,4.077 43.984,3.865 43.791,3.694 C43.596,3.523 43.361,3.437 43.09,3.437 C42.699,3.437 42.393,3.592 42.168,3.903 C41.945,4.214 41.832,4.611 41.832,5.096 C41.832,5.562 41.939,5.94 42.154,6.231 C42.381,6.541 42.687,6.696 43.07,6.696 C43.414,6.696 43.689,6.567 43.898,6.308 C44.1,6.069 44.199,5.781 44.199,5.445 L44.199,5.445 Z"></path>
                            <path d="M54.248,5.037 C54.248,5.762 54.041,6.356 53.627,6.822 C53.193,7.301 52.619,7.54 51.9,7.54 C51.209,7.54 50.658,7.311 50.246,6.851 C49.836,6.392 49.631,5.813 49.631,5.115 C49.631,4.385 49.842,3.786 50.266,3.321 C50.69,2.856 51.26,2.623 51.979,2.623 C52.67,2.623 53.227,2.852 53.647,3.311 C54.047,3.757 54.248,4.333 54.248,5.037 L54.248,5.037 Z M53.162,5.071 C53.162,4.636 53.068,4.263 52.881,3.952 C52.66,3.576 52.348,3.388 51.94,3.388 C51.52,3.388 51.2,3.576 50.979,3.952 C50.791,4.263 50.698,4.642 50.698,5.09 C50.698,5.525 50.792,5.898 50.979,6.209 C51.206,6.585 51.522,6.773 51.93,6.773 C52.33,6.773 52.645,6.582 52.871,6.199 C53.064,5.882 53.162,5.506 53.162,5.071 L53.162,5.071 Z"></path>
                            <path d="M59.883,7.433 L58.836,7.433 L58.836,4.733 C58.836,3.901 58.52,3.485 57.885,3.485 C57.574,3.485 57.323,3.599 57.129,3.828 C56.935,4.057 56.838,4.327 56.838,4.636 L56.838,7.432 L55.789,7.432 L55.789,4.066 C55.789,3.652 55.777,3.203 55.752,2.717 L56.672,2.717 L56.721,3.454 L56.75,3.454 C56.873,3.225 57.055,3.036 57.293,2.885 C57.578,2.709 57.895,2.62 58.244,2.62 C58.683,2.62 59.049,2.762 59.34,3.047 C59.703,3.396 59.883,3.917 59.883,4.609 L59.883,7.433 L59.883,7.433 Z" id="Path"></path>
                            <path d="M66.936,3.504 L65.782,3.504 L65.782,5.794 C65.782,6.376 65.987,6.667 66.393,6.667 C66.581,6.667 66.737,6.651 66.86,6.618 L66.887,7.413 C66.68,7.491 66.408,7.53 66.073,7.53 C65.659,7.53 65.337,7.404 65.104,7.152 C64.87,6.9 64.754,6.476 64.754,5.881 L64.754,3.504 L64.065,3.504 L64.065,2.719 L64.754,2.719 L64.754,1.855 L65.781,1.545 L65.781,2.718 L66.935,2.718 L66.935,3.504 L66.936,3.504 Z" id="Path"></path>
                            <path d="M72.484,7.433 L71.435,7.433 L71.435,4.753 C71.435,3.908 71.119,3.485 70.486,3.485 C70,3.485 69.668,3.73 69.486,4.22 C69.455,4.323 69.437,4.449 69.437,4.597 L69.437,7.432 L68.39,7.432 L68.39,0.556 L69.437,0.556 L69.437,3.397 L69.457,3.397 C69.787,2.88 70.26,2.622 70.873,2.622 C71.307,2.622 71.666,2.764 71.951,3.049 C72.306,3.404 72.484,3.932 72.484,4.63 L72.484,7.433 L72.484,7.433 Z" id="Path"></path>
                            <path d="M78.207,4.853 C78.207,5.041 78.193,5.199 78.168,5.328 L75.025,5.328 C75.039,5.794 75.189,6.149 75.48,6.395 C75.746,6.615 76.089,6.725 76.509,6.725 C76.974,6.725 77.398,6.651 77.78,6.502 L77.944,7.23 C77.497,7.424 76.971,7.521 76.362,7.521 C75.632,7.521 75.057,7.306 74.641,6.876 C74.223,6.446 74.016,5.869 74.016,5.145 C74.016,4.434 74.209,3.842 74.598,3.37 C75.004,2.866 75.553,2.614 76.246,2.614 C76.924,2.614 77.439,2.866 77.787,3.37 C78.068,3.77 78.207,4.265 78.207,4.853 L78.207,4.853 Z M77.207,4.582 C77.215,4.271 77.146,4.003 77.004,3.777 C76.822,3.486 76.545,3.34 76.17,3.34 C75.828,3.34 75.549,3.482 75.336,3.767 C75.162,3.994 75.059,4.265 75.025,4.582 L77.207,4.582 L77.207,4.582 Z"></path>
                        </g>
                    </g>
                </g>
                <g id="Play-Store">
                    <path d="M135,35.9903685 C135,38.2056114 133.262081,40 131.112496,40 L3.89257334,40 C1.74400264,40 0,38.2056114 0,35.9903685 L0,4.014866 C0,1.80067002 1.74400264,0 3.89257334,0 L131.111482,0 C133.262081,0 135,1.80067002 135,4.014866 L135,35.9903685 L135,35.9903685 L135,35.9903685 Z" id="Shape" fill="#192133"></path>
                    <path d="M36.1856181,8.59932681 C36.5210526,7.3005508 37.8115667,6.29920441 39.1648715,6.36364749 C39.996022,6.31738066 40.799082,6.69082007 41.3823745,7.26915545 C41.1973072,7.45257038 41.0122399,7.6376377 40.828825,7.82270502 C40.0108935,6.93372093 38.5072215,6.88580171 37.6430233,7.73017136 C36.5276622,8.6869033 36.6995104,10.6879437 37.9569767,11.4513464 C39.1780906,12.3105875 41.2072215,11.573623 41.324541,10.005508 L39.1615667,10.005508 L39.1615667,9.22062424 C40.1364749,9.22392901 41.1113831,9.2123623 42.0862913,9.22723378 C42.1507344,10.0418605 42.0648103,10.9440636 41.4897797,11.5769278 C40.3562424,12.9351897 38.0131579,12.9054468 36.8697062,11.573623 C36.121175,10.7920441 35.9559364,9.62380661 36.1856181,8.59932681 L36.1856181,8.59932681 Z" id="Shape" fill="#B1C3D3"></path>
                    <path d="M42.9620563,6.49253366 C44.1335985,6.49418605 45.3034884,6.49253366 46.4733782,6.49418605 L46.4733782,7.2377601 C45.5645655,7.23941248 44.6557528,7.2377601 43.7485924,7.23941248 C43.74694,7.85740514 43.74694,8.47705018 43.74694,9.09669523 L46.1842105,9.09669523 L46.1842105,9.84026928 C45.3728886,9.84192166 44.5599143,9.84026928 43.74694,9.84026928 L43.74694,11.6562424 C44.6557528,11.6595471 45.5645655,11.6562424 46.4733782,11.6578947 L46.4733782,12.4427785 L42.9620563,12.4427785 C42.9620563,10.4599143 42.9604039,8.47705018 42.9620563,6.49253366 L42.9620563,6.49253366 Z" id="Shape" fill="#B1C3D3"></path>
                    <path d="M47.0517136,6.49418605 C48.4149327,6.49253366 49.7781518,6.49253366 51.1413709,6.49418605 L51.1413709,7.2377601 L49.4889841,7.2377601 C49.4873317,8.97276622 49.4906365,10.7077723 49.4889841,12.4427785 L48.7041004,12.4427785 L48.7041004,7.2377601 L47.0517136,7.2377601 C47.0500612,6.98990208 47.0500612,6.74204406 47.0517136,6.49418605 L47.0517136,6.49418605 Z" id="Shape" fill="#B1C3D3"></path>
                    <path d="M53.7042228,6.49253366 C53.9768666,6.49253366 54.2528152,6.49418605 54.5287638,6.49253366 L54.5287638,12.4427785 L53.7025704,12.4427785 C53.7025704,10.4599143 53.700918,8.47705018 53.7042228,6.49253366 L53.7042228,6.49253366 Z" id="Shape" fill="#B1C3D3"></path>
                    <path d="M55.1897185,6.49253366 C56.5529376,6.49418605 57.9161567,6.49253366 59.2793758,6.49418605 L59.2793758,7.2377601 C58.729131,7.2377601 58.1788862,7.2377601 57.6286414,7.23941248 C57.6253366,8.9744186 57.6302938,10.7094247 57.6253366,12.4444308 C57.3642595,12.4427785 57.1031824,12.4427785 56.8421053,12.4427785 L56.8421053,7.2377601 C56.2902081,7.2377601 55.7399633,7.2377601 55.1897185,7.23941248 L55.1897185,6.49253366 L55.1897185,6.49253366 Z" id="Shape" fill="#B1C3D3"></path>
                    <path d="M63.5210526,6.53219094 C64.5868421,6.17362301 65.8889229,6.34216646 66.705202,7.16175031 C67.9891065,8.31181151 68.0105875,10.5656671 66.7465116,11.7372093 C65.7682987,12.726989 64.0828641,12.8492656 62.9328029,12.099082 C61.903366,11.4463892 61.3861689,10.1492656 61.5861077,8.95954712 C61.7315177,7.88219094 62.4949204,6.90563035 63.5210526,6.53219094 Z M64.0018972,7.20471236 C64.8958384,6.93206854 65.9335373,7.30550796 66.4523868,8.08212974 C67.1645655,9.12974296 66.9315789,10.7887393 65.8096083,11.4596083 C64.8660955,12.0974296 63.4731334,11.8313953 62.822093,10.9011016 C61.8818849,9.67668299 62.4618727,7.60293758 64.0018972,7.20471236 Z" id="Combined-Shape" fill="#B1C3D3"></path>
                    <path d="M68.5757038,6.49253366 C68.8929621,6.49418605 69.2118727,6.49418605 69.5307834,6.49749082 C70.4792534,8.01107711 71.4227662,9.52796818 72.3728886,11.0399021 C72.3778458,9.5246634 72.3728886,8.00942472 72.374541,6.49253366 C72.6356181,6.49253366 72.8966952,6.49418605 73.1594247,6.49418605 L73.1594247,12.4411261 C72.8834761,12.4427785 72.6091799,12.4427785 72.3348837,12.4444308 C71.3054468,10.8498776 70.3470624,9.21070991 69.3011016,7.62607099 C69.4299878,9.22723378 69.3258874,10.8383109 69.3589351,12.4444308 C69.0962056,12.4427785 68.8351285,12.4427785 68.5740514,12.4427785 C68.5740514,10.4582619 68.572399,8.4753978 68.5757038,6.49253366 L68.5757038,6.49253366 Z" id="Shape" fill="#B1C3D3"></path>
                    <path d="M37.7008568,18.5400857 C39.1318237,17.1719094 41.170869,16.4762546 43.1421665,16.6828029 C44.652448,16.79847 46.0735006,17.5123011 47.155814,18.5582619 C46.7063647,19.0077111 46.2420441,19.4439412 45.8256426,19.9264382 C44.797858,18.9895349 43.4032436,18.4310282 42.0020196,18.5946144 C40.2323133,18.7350673 38.6162791,19.9561812 37.9668911,21.6019584 C37.180355,23.4608935 37.6264994,25.7824969 39.1103427,27.1655447 C40.8420441,28.9236842 43.9914933,28.9963892 45.7578947,27.2531212 C46.4337209,26.6367809 46.7328029,25.7345777 46.8848225,24.8571603 C45.3993268,24.8092411 43.9121787,24.8488984 42.4250306,24.8356793 L42.4250306,22.8941248 C44.5268666,22.8875153 46.6270502,22.9023868 48.7288862,22.8875153 C48.980049,24.4440636 48.7735006,26.1129743 47.9886169,27.496022 C47.0500612,29.0955324 45.3200122,30.1844553 43.4792534,30.3810894 C41.7640759,30.627295 39.9629743,30.2125459 38.5336597,29.2293758 C36.6631579,27.9669523 35.4552632,25.7411873 35.5213586,23.4724602 C35.5081395,21.6168299 36.3425949,19.7942472 37.7008568,18.5400857 L37.7008568,18.5400857 Z" id="Shape" fill="#B1C3D3"></path>
                    <polygon id="Shape" fill="#B1C3D3" points="79.3145655 17.3173195 81.2974296 17.3173195 81.2974296 30.2885557 79.3145655 30.2885557"></polygon>
                    <path d="M95.1774786,17.3173195 C96.6662791,17.3189718 98.1550796,17.3140147 99.6455324,17.3189718 C100.706365,17.3288862 101.780416,17.6692778 102.588433,18.3698898 C103.498898,19.1283354 104.006181,20.323011 103.938433,21.5028152 C103.928519,22.8941248 103.062668,24.1995104 101.834945,24.8274174 C100.417197,25.6156059 98.7482864,25.3132191 97.2033048,25.372705 C97.2,26.9837821 97.2016524,28.5948592 97.2016524,30.2059364 C96.5258262,30.2059364 95.8516524,30.2059364 95.179131,30.2075887 C95.1758262,25.9097307 95.1774786,21.6135251 95.1774786,17.3173195 Z M97.2016524,19.301836 C98.1236842,19.3134027 99.045716,19.2753978 99.9677479,19.3167075 C101.195471,19.3811506 102.193513,20.7625459 101.753978,21.9357405 C101.50612,22.7140147 100.774113,23.3171359 99.9528764,23.3716646 C99.0358017,23.4179315 98.1187271,23.3749694 97.2016524,23.3881885 L97.2016524,19.301836 Z" id="Combined-Shape" fill="#B1C3D3"></path>
                    <path d="M105.504896,30.2059364 C105.504896,25.9097307 105.503244,21.6135251 105.504896,17.3173195 L107.611689,17.3173195 L107.611689,30.2059364 C106.907772,30.2059364 106.205508,30.2075887 105.504896,30.2059364 L105.504896,30.2059364 Z" id="Shape" fill="#B1C3D3"></path>
                    <path d="M111.57907,21.1822521 C112.995165,20.7625459 114.632681,20.9195226 115.858752,21.7771114 C116.822093,22.4479804 117.322766,23.6360465 117.317809,24.7894125 C117.322766,26.5938188 117.317809,28.3998776 117.319461,30.2059364 C116.630416,30.2059364 115.941371,30.2075887 115.252326,30.2059364 C115.250673,29.8391065 115.252326,29.473929 115.26224,29.1070991 C113.963464,31.1560588 110.505018,30.8272338 109.406181,28.7485312 C108.860894,27.6926561 109.012913,26.2947368 109.868849,25.44541 C111.278335,24.0788862 113.560282,23.928519 115.291983,24.7365361 C115.239106,22.7123623 112.0847,22.2116891 111.194064,23.9136475 C110.566157,23.6310894 109.910159,23.4113219 109.303733,23.0858017 C109.782925,22.1869033 110.587638,21.4615055 111.57907,21.1822521 Z M111.90459,26.3195226 C112.952203,25.7643207 114.249327,25.8948592 115.282069,26.4269278 C115.08213,27.7108323 113.814749,28.7716646 112.499449,28.5684211 C111.957466,28.4891065 111.35104,28.1900245 111.220502,27.6116891 C111.124663,27.0911873 111.441922,26.5541616 111.90459,26.3195226 Z" id="Combined-Shape" fill="#B1C3D3"></path>
                    <path d="M53.2960832,21.6019584 C54.8162791,21.3045288 56.4984088,21.7705018 57.546022,22.9387393 C59.1785802,24.6787026 59.0414321,27.7405753 57.2221542,29.298776 C55.5201958,30.8437576 52.6367809,30.7694002 51.0273562,29.123623 C49.2345165,27.3836597 49.3485312,24.125153 51.2983476,22.5454712 C51.8700734,22.0695838 52.5657283,21.7473684 53.2960832,21.6019584 Z M53.4613219,23.4278458 C54.9864749,22.847858 56.6900857,24.1962056 56.6801714,25.7775398 C56.8222766,27.0350061 55.9399021,28.3255202 54.6873929,28.5750306 C53.5059364,28.8509792 52.2666463,28.0330477 51.898164,26.9110771 C51.4189718,25.5825581 52.0600979,23.8706854 53.4613219,23.4278458 Z" id="Combined-Shape" fill="#B1C3D3"></path>
                    <path d="M62.8782742,21.6118727 C64.4364749,21.2896573 66.1764382,21.7705018 67.2323133,22.9916157 C68.7954712,24.7216646 68.674847,27.6943084 66.9134027,29.2442472 C65.1321297,30.947858 61.9529376,30.7561812 60.4029988,28.8344553 C58.9141983,27.0862301 59.0827417,24.1714198 60.822705,22.651224 C61.3960832,22.1274174 62.1165239,21.7671971 62.8782742,21.6118727 Z M63.1839657,23.3997552 C64.5174419,22.9602203 66.0029376,23.9483476 66.2574051,25.2933905 C66.6143207,26.6136475 65.8376989,28.196634 64.471175,28.5370257 C63.19388,28.9385557 61.7910037,28.0049572 61.4853121,26.7408813 C61.078825,25.4123623 61.800918,23.7831089 63.1839657,23.3997552 Z" id="Combined-Shape" fill="#B1C3D3"></path>
                    <path d="M71.2905753,22.2249082 C72.6554468,21.2533048 74.7291922,21.2400857 75.9370869,22.4810282 C75.9304774,22.2463892 75.9271726,22.0117503 75.9238678,21.7787638 L77.8274174,21.7787638 L77.8274174,29.9250306 C77.804284,31.0965728 77.5035496,32.3441248 76.6674419,33.2099755 C75.6198286,34.3088127 73.9360465,34.5864137 72.5034272,34.2493268 C71.2013464,33.9502448 70.1652999,32.9373317 69.623317,31.7426561 C70.2,31.494798 70.7799878,31.2535496 71.3599755,31.0156059 C71.5979192,31.4435741 71.8656059,31.874847 72.2787026,32.1590575 C73.2635251,32.9075887 74.8960832,32.6944308 75.5520808,31.6104651 C75.9684823,30.9594247 75.9337821,30.1580171 75.9370869,29.4160955 C75.1935129,30.204284 74.0550184,30.55459 72.9925337,30.371175 C71.2773562,30.1299266 69.8381273,28.7402693 69.4316401,27.073011 C68.9755814,25.2768666 69.7241126,23.2361689 71.2905753,22.2249082 Z M73.3775398,23.3287026 C75.0679315,23.0197062 76.3716646,24.8703794 76.0395349,26.4219706 C75.9271726,27.7108323 74.6779682,28.8641983 73.3544064,28.5882497 C72.1167687,28.40153 71.2426561,27.1688494 71.29388,25.9510404 C71.2657895,24.7348837 72.1415545,23.5121175 73.3775398,23.3287026 Z" id="Combined-Shape" fill="#B1C3D3"></path>
                    <path d="M83.7429621,22.6132191 C84.9293758,21.4780294 86.8329253,21.1822521 88.305202,21.9142595 C89.4585679,22.5041616 90.202142,23.6641371 90.5689718,24.876989 C88.596022,25.6949204 86.6197674,26.5062424 84.6501224,27.3307834 C85.0070379,27.9322521 85.553978,28.4593635 86.2678091,28.5750306 C87.3121175,28.8228886 88.3944308,28.2643819 88.9595471,27.3869645 C89.480049,27.7290086 89.9988984,28.0710526 90.5111383,28.4263158 C89.9724602,29.196328 89.2222766,29.8324969 88.3299878,30.1464504 C86.8114443,30.6966952 84.9541616,30.4042228 83.7859241,29.2508568 C81.9567319,27.5588127 81.9798654,24.3449204 83.7429621,22.6132191 Z M84.3064146,25.7990208 C84.3031212,24.7001836 85.0219094,23.629437 86.1042228,23.3468788 C86.9006732,23.0907589 87.8408813,23.4311506 88.253978,24.1664627 C86.9353733,24.7034884 85.6233782,25.2603427 84.3064146,25.7990208 Z" id="Combined-Shape" fill="#B1C3D3"></path>
                    <path d="M118.000245,21.4515912 C118.763647,21.4449816 119.528703,21.4482864 120.293758,21.4482864 C121.128213,23.4625459 121.956059,25.4801102 122.788862,27.496022 C123.562179,25.4817625 124.342105,23.4691554 125.110465,21.4532436 C125.900306,21.4433293 126.691799,21.4499388 127.483293,21.4482864 C125.634272,25.7180539 123.768727,29.9828641 121.913097,34.2509792 C121.169523,34.2559364 120.425949,34.2575887 119.682375,34.2493268 C120.366463,32.8051408 121.032375,31.3510404 121.719767,29.9085067 C120.487087,27.0862301 119.23623,24.2722154 118.000245,21.4515912 L118.000245,21.4515912 Z" id="Shape" fill="#B1C3D3"></path>
                    <g id="Group" transform="translate(10.905753, 10.053856)">
                        <polygon id="Shape" points="10.7560211 10.2477487 13.920901 7.08165763 13.9201638 7.08165763 10.7560211 10.2477487 0.656861877 0.141633153 0.656124659 0.141633153 10.7560211 10.2492241 0.639905847 20.3708308 0.639905847 20.3708308 10.7560211 10.2492241 13.9349082 13.429331 13.9363826 13.429331"></polygon>
                        <path d="M13.9201638,7.08165763 L1.58944356,0.297282086 C1.2407391,0.106224864 0.917100085,0.0619645043 0.656861877,0.142370825 L10.7567583,10.2477487 L13.9201638,7.08165763 L13.9201638,7.08165763 Z" id="Shape" fill="#D7E69D" fill-rule="nonzero"></path>
                        <path d="M13.9363826,13.429331 L18.1451643,11.1123011 C18.9988636,10.6401906 18.9988636,9.87374869 18.1451643,9.40532654 L13.920901,7.08165763 L10.7567583,10.2477487 L13.9363826,13.429331 L13.9363826,13.429331 Z" id="Shape" fill="#FEEB74" fill-rule="nonzero"></path>
                        <path d="M0.656124659,0.141633153 C0.28161755,0.258923107 0.0383353733,0.639562205 0.0383353733,1.21420921 L0.0405470295,19.3034184 C0.0405470295,19.8714264 0.276457019,20.2454264 0.639905847,20.3700931 L10.7567583,10.2470111 L0.656124659,0.141633153 L0.656124659,0.141633153 Z" id="Shape" fill="#7DBEBB" fill-rule="nonzero"></path>
                        <path d="M0.639905847,20.3708308 C0.903092929,20.4600892 1.2326297,20.4173042 1.58944356,20.2225586 L13.9356454,13.429331 L10.7567583,10.2484864 L0.639905847,20.3708308 L0.639905847,20.3708308 Z" id="Shape" fill="#F36F56" fill-rule="nonzero"></path>
                    </g>
                </g>
            </g>
            <g id="icon-sprite-stores-mo" transform="translate(0.000000, 50.000000)">
                <g id="App-Store" transform="translate(140.000000, 0.000000)" fill-rule="nonzero">
                    <g id="Group">
                        <path d="M131.112496,40 L3.89257334,40 C1.74400264,40 0,38.2056114 0,35.9903685 L0,4.014866 C0,1.80067002 1.74400264,0 3.89257334,0 L131.111482,0 C133.262081,0 135,1.80067002 135,4.014866 L135,35.9903685 C135,38.2056114 133.262081,40 131.112496,40 Z" id="Shape" fill="#1F80E0"></path>
                        <g id="Shape" transform="translate(12.000000, 6.000000)" fill="#FFFFFF">
                            <path d="M18.128,13.784 C18.099,10.561 20.767,8.993 20.889,8.92 C19.378,6.717 17.036,6.416 16.213,6.392 C14.246,6.185 12.338,7.569 11.336,7.569 C10.314,7.569 8.771,6.412 7.108,6.446 C4.968,6.479 2.966,7.718 1.868,9.642 C-0.398,13.565 1.292,19.33 3.463,22.501 C4.549,24.054 5.818,25.788 7.479,25.727 C9.104,25.66 9.711,24.691 11.672,24.691 C13.615,24.691 14.185,25.727 15.879,25.688 C17.623,25.66 18.721,24.128 19.769,22.561 C21.024,20.781 21.528,19.028 21.548,18.938 C21.507,18.924 18.161,17.647 18.128,13.784 L18.128,13.784 Z" id="Path"></path>
                            <path d="M14.928,4.306 C15.802,3.213 16.4,1.726 16.234,0.217 C14.969,0.273 13.387,1.092 12.476,2.161 C11.67,3.103 10.95,4.647 11.136,6.099 C12.557,6.205 14.016,5.382 14.928,4.306 L14.928,4.306 Z" id="Path"></path>
                        </g>
                        <g id="Shape" transform="translate(42.000000, 17.000000)" fill="#FFFFFF">
                            <path d="M11.645,13.504 L9.374,13.504 L8.13,9.595 L3.806,9.595 L2.621,13.504 L0.41,13.504 L4.694,0.196 L7.34,0.196 L11.645,13.504 L11.645,13.504 Z M7.755,7.955 L6.63,4.48 C6.511,4.125 6.288,3.289 5.959,1.973 L5.919,1.973 C5.788,2.539 5.577,3.375 5.287,4.48 L4.182,7.955 L7.755,7.955 L7.755,7.955 Z"></path>
                            <path d="M22.662,8.588 C22.662,10.22 22.221,11.51 21.339,12.457 C20.549,13.3 19.568,13.721 18.397,13.721 C17.133,13.721 16.225,13.267 15.672,12.359 L15.632,12.359 L15.632,17.414 L13.5,17.414 L13.5,7.067 C13.5,6.041 13.473,4.988 13.421,3.908 L15.296,3.908 L15.415,5.429 L15.455,5.429 C16.166,4.283 17.245,3.711 18.693,3.711 C19.825,3.711 20.77,4.158 21.526,5.053 C22.284,5.949 22.662,7.127 22.662,8.588 L22.662,8.588 Z M20.49,8.666 C20.49,7.732 20.28,6.962 19.858,6.356 C19.397,5.724 18.778,5.408 18.002,5.408 C17.476,5.408 16.998,5.584 16.571,5.931 C16.143,6.281 15.863,6.738 15.732,7.304 C15.666,7.568 15.633,7.784 15.633,7.954 L15.633,9.554 C15.633,10.252 15.847,10.841 16.275,11.322 C16.703,11.803 17.259,12.043 17.943,12.043 C18.746,12.043 19.371,11.733 19.818,11.115 C20.266,10.496 20.49,9.68 20.49,8.666 L20.49,8.666 Z"></path>
                            <path d="M33.699,8.588 C33.699,10.22 33.258,11.51 32.375,12.457 C31.586,13.3 30.605,13.721 29.434,13.721 C28.17,13.721 27.262,13.267 26.71,12.359 L26.67,12.359 L26.67,17.414 L24.538,17.414 L24.538,7.067 C24.538,6.041 24.511,4.988 24.459,3.908 L26.334,3.908 L26.453,5.429 L26.493,5.429 C27.203,4.283 28.282,3.711 29.731,3.711 C30.862,3.711 31.807,4.158 32.565,5.053 C33.32,5.949 33.699,7.127 33.699,8.588 L33.699,8.588 Z M31.527,8.666 C31.527,7.732 31.316,6.962 30.894,6.356 C30.433,5.724 29.816,5.408 29.039,5.408 C28.512,5.408 28.035,5.584 27.607,5.931 C27.179,6.281 26.9,6.738 26.769,7.304 C26.704,7.568 26.67,7.784 26.67,7.954 L26.67,9.554 C26.67,10.252 26.884,10.841 27.31,11.322 C27.738,11.802 28.294,12.043 28.98,12.043 C29.783,12.043 30.408,11.733 30.855,11.115 C31.303,10.496 31.527,9.68 31.527,8.666 L31.527,8.666 Z"></path>
                            <path d="M46.039,9.772 C46.039,10.904 45.646,11.825 44.857,12.536 C43.99,13.313 42.783,13.701 41.232,13.701 C39.8,13.701 38.652,13.425 37.783,12.872 L38.277,11.095 C39.213,11.661 40.24,11.945 41.359,11.945 C42.162,11.945 42.787,11.763 43.236,11.401 C43.683,11.039 43.906,10.553 43.906,9.947 C43.906,9.407 43.722,8.952 43.353,8.583 C42.986,8.214 42.373,7.871 41.517,7.554 C39.187,6.685 38.023,5.412 38.023,3.738 C38.023,2.644 38.431,1.747 39.248,1.049 C40.062,0.35 41.148,0.001 42.506,0.001 C43.717,0.001 44.723,0.212 45.526,0.633 L44.993,2.371 C44.243,1.963 43.395,1.759 42.446,1.759 C41.696,1.759 41.11,1.944 40.69,2.312 C40.335,2.641 40.157,3.042 40.157,3.517 C40.157,4.043 40.36,4.478 40.768,4.82 C41.123,5.136 41.768,5.478 42.704,5.847 C43.849,6.308 44.69,6.847 45.231,7.465 C45.77,8.081 46.039,8.852 46.039,9.772 L46.039,9.772 Z" id="Path"></path>
                            <path d="M53.088,5.508 L50.738,5.508 L50.738,10.167 C50.738,11.352 51.152,11.944 51.982,11.944 C52.363,11.944 52.679,11.911 52.929,11.845 L52.988,13.464 C52.568,13.621 52.015,13.7 51.33,13.7 C50.488,13.7 49.83,13.443 49.355,12.93 C48.882,12.416 48.644,11.554 48.644,10.343 L48.644,5.506 L47.244,5.506 L47.244,3.906 L48.644,3.906 L48.644,2.149 L50.738,1.517 L50.738,3.906 L53.088,3.906 L53.088,5.508 L53.088,5.508 Z" id="Path"></path>
                            <path d="M63.691,8.627 C63.691,10.102 63.269,11.313 62.427,12.26 C61.544,13.235 60.372,13.721 58.911,13.721 C57.503,13.721 56.382,13.254 55.546,12.32 C54.71,11.386 54.292,10.207 54.292,8.786 C54.292,7.299 54.722,6.081 55.585,5.134 C56.446,4.186 57.608,3.712 59.069,3.712 C60.477,3.712 61.61,4.179 62.465,5.114 C63.283,6.021 63.691,7.192 63.691,8.627 L63.691,8.627 Z M61.479,8.696 C61.479,7.811 61.29,7.052 60.907,6.419 C60.46,5.653 59.821,5.271 58.993,5.271 C58.136,5.271 57.485,5.654 57.038,6.419 C56.655,7.053 56.466,7.824 56.466,8.736 C56.466,9.621 56.655,10.38 57.038,11.012 C57.499,11.778 58.143,12.16 58.974,12.16 C59.788,12.16 60.427,11.77 60.888,10.992 C61.281,10.347 61.479,9.58 61.479,8.696 L61.479,8.696 Z"></path>
                            <path d="M70.621,5.783 C70.41,5.744 70.185,5.724 69.949,5.724 C69.199,5.724 68.619,6.007 68.211,6.574 C67.856,7.074 67.678,7.706 67.678,8.469 L67.678,13.504 L65.547,13.504 L65.567,6.93 C65.567,5.824 65.54,4.817 65.487,3.909 L67.344,3.909 L67.422,5.745 L67.481,5.745 C67.706,5.114 68.061,4.606 68.547,4.225 C69.022,3.882 69.535,3.711 70.088,3.711 C70.285,3.711 70.463,3.725 70.621,3.75 L70.621,5.783 L70.621,5.783 Z" id="Path"></path>
                            <path d="M80.156,8.252 C80.156,8.634 80.131,8.956 80.078,9.219 L73.682,9.219 C73.707,10.167 74.016,10.892 74.61,11.392 C75.149,11.839 75.846,12.063 76.702,12.063 C77.649,12.063 78.513,11.912 79.29,11.609 L79.624,13.089 C78.716,13.485 77.644,13.682 76.407,13.682 C74.919,13.682 73.751,13.244 72.901,12.369 C72.053,11.494 71.628,10.319 71.628,8.845 C71.628,7.398 72.023,6.193 72.814,5.232 C73.642,4.206 74.761,3.693 76.169,3.693 C77.552,3.693 78.599,4.206 79.31,5.232 C79.873,6.047 80.156,7.055 80.156,8.252 L80.156,8.252 Z M78.123,7.699 C78.137,7.067 77.998,6.521 77.709,6.06 C77.34,5.467 76.773,5.171 76.01,5.171 C75.313,5.171 74.746,5.46 74.313,6.04 C73.958,6.501 73.747,7.054 73.682,7.698 L78.123,7.698 L78.123,7.699 Z"></path>
                        </g>
                        <g id="Shape" transform="translate(43.000000, 6.000000)" fill="#FFFFFF">
                            <path d="M6.05,4.009 C6.05,5.186 5.697,6.072 4.992,6.667 C4.339,7.216 3.411,7.491 2.209,7.491 C1.613,7.491 1.103,7.465 0.676,7.413 L0.676,0.982 C1.233,0.892 1.833,0.846 2.481,0.846 C3.626,0.846 4.489,1.095 5.071,1.593 C5.723,2.156 6.05,2.961 6.05,4.009 L6.05,4.009 Z M4.945,4.038 C4.945,3.275 4.743,2.69 4.339,2.282 C3.935,1.875 3.345,1.671 2.568,1.671 C2.238,1.671 1.957,1.693 1.724,1.739 L1.724,6.628 C1.853,6.648 2.089,6.657 2.432,6.657 C3.234,6.657 3.853,6.434 4.289,5.988 C4.725,5.542 4.945,4.892 4.945,4.038 L4.945,4.038 Z"></path>
                            <path d="M11.909,5.037 C11.909,5.762 11.702,6.356 11.288,6.822 C10.854,7.301 10.279,7.54 9.561,7.54 C8.869,7.54 8.318,7.311 7.907,6.851 C7.497,6.392 7.292,5.813 7.292,5.115 C7.292,4.385 7.503,3.786 7.927,3.321 C8.351,2.856 8.921,2.623 9.639,2.623 C10.331,2.623 10.887,2.852 11.308,3.311 C11.708,3.757 11.909,4.333 11.909,5.037 L11.909,5.037 Z M10.822,5.071 C10.822,4.636 10.728,4.263 10.541,3.952 C10.321,3.576 10.008,3.388 9.601,3.388 C9.18,3.388 8.86,3.576 8.64,3.952 C8.452,4.263 8.359,4.642 8.359,5.09 C8.359,5.525 8.453,5.898 8.64,6.209 C8.867,6.585 9.183,6.773 9.591,6.773 C9.991,6.773 10.305,6.582 10.531,6.199 C10.725,5.882 10.822,5.506 10.822,5.071 L10.822,5.071 Z"></path>
                            <path d="M19.765,2.719 L18.29,7.433 L17.33,7.433 L16.719,5.386 C16.564,4.875 16.438,4.367 16.34,3.863 L16.321,3.863 C16.23,4.381 16.104,4.888 15.942,5.386 L15.293,7.433 L14.322,7.433 L12.935,2.719 L14.012,2.719 L14.545,4.96 C14.674,5.49 14.78,5.995 14.865,6.473 L14.884,6.473 C14.962,6.079 15.091,5.577 15.273,4.97 L15.942,2.72 L16.796,2.72 L17.437,4.922 C17.592,5.459 17.718,5.976 17.815,6.474 L17.844,6.474 C17.915,5.989 18.022,5.472 18.164,4.922 L18.736,2.72 L19.765,2.72 L19.765,2.719 Z" id="Path"></path>
                            <path d="M25.198,7.433 L24.15,7.433 L24.15,4.733 C24.15,3.901 23.834,3.485 23.2,3.485 C22.889,3.485 22.638,3.599 22.443,3.828 C22.25,4.057 22.152,4.327 22.152,4.636 L22.152,7.432 L21.104,7.432 L21.104,4.066 C21.104,3.652 21.091,3.203 21.066,2.717 L21.987,2.717 L22.036,3.454 L22.065,3.454 C22.187,3.225 22.369,3.036 22.608,2.885 C22.892,2.709 23.21,2.62 23.558,2.62 C23.998,2.62 24.364,2.762 24.655,3.047 C25.017,3.396 25.198,3.917 25.198,4.609 L25.198,7.433 L25.198,7.433 Z" id="Path"></path>
                            <polygon id="Path" points="28.088 7.433 27.041 7.433 27.041 0.556 28.088 0.556"></polygon>
                            <path d="M34.258,5.037 C34.258,5.762 34.051,6.356 33.637,6.822 C33.203,7.301 32.627,7.54 31.91,7.54 C31.217,7.54 30.666,7.311 30.256,6.851 C29.846,6.392 29.641,5.813 29.641,5.115 C29.641,4.385 29.852,3.786 30.276,3.321 C30.7,2.856 31.27,2.623 31.987,2.623 C32.68,2.623 33.235,2.852 33.657,3.311 C34.057,3.757 34.258,4.333 34.258,5.037 L34.258,5.037 Z M33.17,5.071 C33.17,4.636 33.076,4.263 32.889,3.952 C32.67,3.576 32.356,3.388 31.95,3.388 C31.528,3.388 31.208,3.576 30.989,3.952 C30.801,4.263 30.708,4.642 30.708,5.09 C30.708,5.525 30.802,5.898 30.989,6.209 C31.216,6.585 31.532,6.773 31.94,6.773 C32.34,6.773 32.653,6.582 32.879,6.199 C33.074,5.882 33.17,5.506 33.17,5.071 L33.17,5.071 Z"></path>
                            <path d="M39.33,7.433 L38.389,7.433 L38.311,6.89 L38.282,6.89 C37.96,7.323 37.501,7.54 36.905,7.54 C36.46,7.54 36.1,7.397 35.829,7.113 C35.583,6.855 35.46,6.534 35.46,6.153 C35.46,5.577 35.7,5.138 36.183,4.834 C36.665,4.53 37.343,4.381 38.216,4.388 L38.216,4.3 C38.216,3.679 37.89,3.369 37.237,3.369 C36.772,3.369 36.362,3.486 36.008,3.718 L35.795,3.03 C36.233,2.759 36.774,2.623 37.412,2.623 C38.644,2.623 39.262,3.273 39.262,4.573 L39.262,6.309 C39.262,6.78 39.285,7.155 39.33,7.433 L39.33,7.433 Z M38.242,5.813 L38.242,5.086 C37.086,5.066 36.508,5.383 36.508,6.036 C36.508,6.282 36.574,6.466 36.709,6.589 C36.844,6.712 37.016,6.773 37.221,6.773 C37.451,6.773 37.666,6.7 37.862,6.555 C38.059,6.409 38.18,6.224 38.225,5.997 C38.236,5.946 38.242,5.884 38.242,5.813 L38.242,5.813 Z"></path>
                            <path d="M45.285,7.433 L44.355,7.433 L44.306,6.676 L44.277,6.676 C43.98,7.252 43.474,7.54 42.763,7.54 C42.195,7.54 41.722,7.317 41.347,6.871 C40.972,6.425 40.785,5.846 40.785,5.135 C40.785,4.372 40.988,3.754 41.396,3.282 C41.791,2.842 42.275,2.622 42.851,2.622 C43.484,2.622 43.927,2.835 44.179,3.262 L44.199,3.262 L44.199,0.556 L45.248,0.556 L45.248,6.163 C45.248,6.622 45.26,7.045 45.285,7.433 L45.285,7.433 Z M44.199,5.445 L44.199,4.659 C44.199,4.523 44.189,4.413 44.17,4.329 C44.111,4.077 43.984,3.865 43.791,3.694 C43.596,3.523 43.361,3.437 43.09,3.437 C42.699,3.437 42.393,3.592 42.168,3.903 C41.945,4.214 41.832,4.611 41.832,5.096 C41.832,5.562 41.939,5.94 42.154,6.231 C42.381,6.541 42.687,6.696 43.07,6.696 C43.414,6.696 43.689,6.567 43.898,6.308 C44.1,6.069 44.199,5.781 44.199,5.445 L44.199,5.445 Z"></path>
                            <path d="M54.248,5.037 C54.248,5.762 54.041,6.356 53.627,6.822 C53.193,7.301 52.619,7.54 51.9,7.54 C51.209,7.54 50.658,7.311 50.246,6.851 C49.836,6.392 49.631,5.813 49.631,5.115 C49.631,4.385 49.842,3.786 50.266,3.321 C50.69,2.856 51.26,2.623 51.979,2.623 C52.67,2.623 53.227,2.852 53.647,3.311 C54.047,3.757 54.248,4.333 54.248,5.037 L54.248,5.037 Z M53.162,5.071 C53.162,4.636 53.068,4.263 52.881,3.952 C52.66,3.576 52.348,3.388 51.94,3.388 C51.52,3.388 51.2,3.576 50.979,3.952 C50.791,4.263 50.698,4.642 50.698,5.09 C50.698,5.525 50.792,5.898 50.979,6.209 C51.206,6.585 51.522,6.773 51.93,6.773 C52.33,6.773 52.645,6.582 52.871,6.199 C53.064,5.882 53.162,5.506 53.162,5.071 L53.162,5.071 Z"></path>
                            <path d="M59.883,7.433 L58.836,7.433 L58.836,4.733 C58.836,3.901 58.52,3.485 57.885,3.485 C57.574,3.485 57.323,3.599 57.129,3.828 C56.935,4.057 56.838,4.327 56.838,4.636 L56.838,7.432 L55.789,7.432 L55.789,4.066 C55.789,3.652 55.777,3.203 55.752,2.717 L56.672,2.717 L56.721,3.454 L56.75,3.454 C56.873,3.225 57.055,3.036 57.293,2.885 C57.578,2.709 57.895,2.62 58.244,2.62 C58.683,2.62 59.049,2.762 59.34,3.047 C59.703,3.396 59.883,3.917 59.883,4.609 L59.883,7.433 L59.883,7.433 Z" id="Path"></path>
                            <path d="M66.936,3.504 L65.782,3.504 L65.782,5.794 C65.782,6.376 65.987,6.667 66.393,6.667 C66.581,6.667 66.737,6.651 66.86,6.618 L66.887,7.413 C66.68,7.491 66.408,7.53 66.073,7.53 C65.659,7.53 65.337,7.404 65.104,7.152 C64.87,6.9 64.754,6.476 64.754,5.881 L64.754,3.504 L64.065,3.504 L64.065,2.719 L64.754,2.719 L64.754,1.855 L65.781,1.545 L65.781,2.718 L66.935,2.718 L66.935,3.504 L66.936,3.504 Z" id="Path"></path>
                            <path d="M72.484,7.433 L71.435,7.433 L71.435,4.753 C71.435,3.908 71.119,3.485 70.486,3.485 C70,3.485 69.668,3.73 69.486,4.22 C69.455,4.323 69.437,4.449 69.437,4.597 L69.437,7.432 L68.39,7.432 L68.39,0.556 L69.437,0.556 L69.437,3.397 L69.457,3.397 C69.787,2.88 70.26,2.622 70.873,2.622 C71.307,2.622 71.666,2.764 71.951,3.049 C72.306,3.404 72.484,3.932 72.484,4.63 L72.484,7.433 L72.484,7.433 Z" id="Path"></path>
                            <path d="M78.207,4.853 C78.207,5.041 78.193,5.199 78.168,5.328 L75.025,5.328 C75.039,5.794 75.189,6.149 75.48,6.395 C75.746,6.615 76.089,6.725 76.509,6.725 C76.974,6.725 77.398,6.651 77.78,6.502 L77.944,7.23 C77.497,7.424 76.971,7.521 76.362,7.521 C75.632,7.521 75.057,7.306 74.641,6.876 C74.223,6.446 74.016,5.869 74.016,5.145 C74.016,4.434 74.209,3.842 74.598,3.37 C75.004,2.866 75.553,2.614 76.246,2.614 C76.924,2.614 77.439,2.866 77.787,3.37 C78.068,3.77 78.207,4.265 78.207,4.853 L78.207,4.853 Z M77.207,4.582 C77.215,4.271 77.146,4.003 77.004,3.777 C76.822,3.486 76.545,3.34 76.17,3.34 C75.828,3.34 75.549,3.482 75.336,3.767 C75.162,3.994 75.059,4.265 75.025,4.582 L77.207,4.582 L77.207,4.582 Z"></path>
                        </g>
                    </g>
                </g>
                <g id="Play-Store">
                    <path d="M135,35.9903685 C135,38.2056114 133.262081,40 131.112496,40 L3.89257334,40 C1.74400264,40 0,38.2056114 0,35.9903685 L0,4.014866 C0,1.80067002 1.74400264,0 3.89257334,0 L131.111482,0 C133.262081,0 135,1.80067002 135,4.014866 L135,35.9903685 L135,35.9903685 L135,35.9903685 Z" id="Shape" fill="#1F80E0" fill-rule="nonzero"></path>
                    <path d="M36.1856181,8.59932681 C36.5210526,7.3005508 37.8115667,6.29920441 39.1648715,6.36364749 C39.996022,6.31738066 40.799082,6.69082007 41.3823745,7.26915545 C41.1973072,7.45257038 41.0122399,7.6376377 40.828825,7.82270502 C40.0108935,6.93372093 38.5072215,6.88580171 37.6430233,7.73017136 C36.5276622,8.6869033 36.6995104,10.6879437 37.9569767,11.4513464 C39.1780906,12.3105875 41.2072215,11.573623 41.324541,10.005508 L39.1615667,10.005508 L39.1615667,9.22062424 C40.1364749,9.22392901 41.1113831,9.2123623 42.0862913,9.22723378 C42.1507344,10.0418605 42.0648103,10.9440636 41.4897797,11.5769278 C40.3562424,12.9351897 38.0131579,12.9054468 36.8697062,11.573623 C36.121175,10.7920441 35.9559364,9.62380661 36.1856181,8.59932681 L36.1856181,8.59932681 Z" id="Shape" fill="#FFFFFF" fill-rule="nonzero"></path>
                    <path d="M42.9620563,6.49253366 C44.1335985,6.49418605 45.3034884,6.49253366 46.4733782,6.49418605 L46.4733782,7.2377601 C45.5645655,7.23941248 44.6557528,7.2377601 43.7485924,7.23941248 C43.74694,7.85740514 43.74694,8.47705018 43.74694,9.09669523 L46.1842105,9.09669523 L46.1842105,9.84026928 C45.3728886,9.84192166 44.5599143,9.84026928 43.74694,9.84026928 L43.74694,11.6562424 C44.6557528,11.6595471 45.5645655,11.6562424 46.4733782,11.6578947 L46.4733782,12.4427785 L42.9620563,12.4427785 C42.9620563,10.4599143 42.9604039,8.47705018 42.9620563,6.49253366 L42.9620563,6.49253366 Z" id="Shape" fill="#FFFFFF" fill-rule="nonzero"></path>
                    <path d="M47.0517136,6.49418605 C48.4149327,6.49253366 49.7781518,6.49253366 51.1413709,6.49418605 L51.1413709,7.2377601 L49.4889841,7.2377601 C49.4873317,8.97276622 49.4906365,10.7077723 49.4889841,12.4427785 L48.7041004,12.4427785 L48.7041004,7.2377601 L47.0517136,7.2377601 C47.0500612,6.98990208 47.0500612,6.74204406 47.0517136,6.49418605 L47.0517136,6.49418605 Z" id="Shape" fill="#FFFFFF" fill-rule="nonzero"></path>
                    <path d="M53.7042228,6.49253366 C53.9768666,6.49253366 54.2528152,6.49418605 54.5287638,6.49253366 L54.5287638,12.4427785 L53.7025704,12.4427785 C53.7025704,10.4599143 53.700918,8.47705018 53.7042228,6.49253366 L53.7042228,6.49253366 Z" id="Shape" fill="#FFFFFF" fill-rule="nonzero"></path>
                    <path d="M55.1897185,6.49253366 C56.5529376,6.49418605 57.9161567,6.49253366 59.2793758,6.49418605 L59.2793758,7.2377601 C58.729131,7.2377601 58.1788862,7.2377601 57.6286414,7.23941248 C57.6253366,8.9744186 57.6302938,10.7094247 57.6253366,12.4444308 C57.3642595,12.4427785 57.1031824,12.4427785 56.8421053,12.4427785 L56.8421053,7.2377601 C56.2902081,7.2377601 55.7399633,7.2377601 55.1897185,7.23941248 L55.1897185,6.49253366 L55.1897185,6.49253366 Z" id="Shape" fill="#FFFFFF" fill-rule="nonzero"></path>
                    <path d="M63.5210526,6.53219094 C64.5868421,6.17362301 65.8889229,6.34216646 66.705202,7.16175031 C67.9891065,8.31181151 68.0105875,10.5656671 66.7465116,11.7372093 C65.7682987,12.726989 64.0828641,12.8492656 62.9328029,12.099082 C61.903366,11.4463892 61.3861689,10.1492656 61.5861077,8.95954712 C61.7315177,7.88219094 62.4949204,6.90563035 63.5210526,6.53219094 Z" id="Combined-Shape-path" fill="#FFFFFF" fill-rule="nonzero"></path>
                    <path d="M64.0018972,7.20471236 C64.8958384,6.93206854 65.9335373,7.30550796 66.4523868,8.08212974 C67.1645655,9.12974296 66.9315789,10.7887393 65.8096083,11.4596083 C64.8660955,12.0974296 63.4731334,11.8313953 62.822093,10.9011016 C61.8818849,9.67668299 62.4618727,7.60293758 64.0018972,7.20471236 Z" id="Combined-Shape-path" fill="#1F80E0" fill-rule="nonzero"></path>
                    <path d="M68.5757038,6.49253366 C68.8929621,6.49418605 69.2118727,6.49418605 69.5307834,6.49749082 C70.4792534,8.01107711 71.4227662,9.52796818 72.3728886,11.0399021 C72.3778458,9.5246634 72.3728886,8.00942472 72.374541,6.49253366 C72.6356181,6.49253366 72.8966952,6.49418605 73.1594247,6.49418605 L73.1594247,12.4411261 C72.8834761,12.4427785 72.6091799,12.4427785 72.3348837,12.4444308 C71.3054468,10.8498776 70.3470624,9.21070991 69.3011016,7.62607099 C69.4299878,9.22723378 69.3258874,10.8383109 69.3589351,12.4444308 C69.0962056,12.4427785 68.8351285,12.4427785 68.5740514,12.4427785 C68.5740514,10.4582619 68.572399,8.4753978 68.5757038,6.49253366 L68.5757038,6.49253366 Z" id="Shape" fill="#FFFFFF" fill-rule="nonzero"></path>
                    <path d="M37.7008568,18.5400857 C39.1318237,17.1719094 41.170869,16.4762546 43.1421665,16.6828029 C44.652448,16.79847 46.0735006,17.5123011 47.155814,18.5582619 C46.7063647,19.0077111 46.2420441,19.4439412 45.8256426,19.9264382 C44.797858,18.9895349 43.4032436,18.4310282 42.0020196,18.5946144 C40.2323133,18.7350673 38.6162791,19.9561812 37.9668911,21.6019584 C37.180355,23.4608935 37.6264994,25.7824969 39.1103427,27.1655447 C40.8420441,28.9236842 43.9914933,28.9963892 45.7578947,27.2531212 C46.4337209,26.6367809 46.7328029,25.7345777 46.8848225,24.8571603 C45.3993268,24.8092411 43.9121787,24.8488984 42.4250306,24.8356793 L42.4250306,22.8941248 C44.5268666,22.8875153 46.6270502,22.9023868 48.7288862,22.8875153 C48.980049,24.4440636 48.7735006,26.1129743 47.9886169,27.496022 C47.0500612,29.0955324 45.3200122,30.1844553 43.4792534,30.3810894 C41.7640759,30.627295 39.9629743,30.2125459 38.5336597,29.2293758 C36.6631579,27.9669523 35.4552632,25.7411873 35.5213586,23.4724602 C35.5081395,21.6168299 36.3425949,19.7942472 37.7008568,18.5400857 L37.7008568,18.5400857 Z" id="Shape" fill="#FFFFFF" fill-rule="nonzero"></path>
                    <polygon id="Shape" fill="#FFFFFF" fill-rule="nonzero" points="79.3145655 17.3173195 81.2974296 17.3173195 81.2974296 30.2885557 79.3145655 30.2885557"></polygon>
                    <path d="M95.1774786,17.3173195 C96.6662791,17.3189718 98.1550796,17.3140147 99.6455324,17.3189718 C100.706365,17.3288862 101.780416,17.6692778 102.588433,18.3698898 C103.498898,19.1283354 104.006181,20.323011 103.938433,21.5028152 C103.928519,22.8941248 103.062668,24.1995104 101.834945,24.8274174 C100.417197,25.6156059 98.7482864,25.3132191 97.2033048,25.372705 C97.2,26.9837821 97.2016524,28.5948592 97.2016524,30.2059364 C96.5258262,30.2059364 95.8516524,30.2059364 95.179131,30.2075887 C95.1758262,25.9097307 95.1774786,21.6135251 95.1774786,17.3173195 Z" id="Combined-Shape-path" fill="#FFFFFF" fill-rule="nonzero"></path>
                    <path d="M97.2016524,19.301836 C98.1236842,19.3134027 99.045716,19.2753978 99.9677479,19.3167075 C101.195471,19.3811506 102.193513,20.7625459 101.753978,21.9357405 C101.50612,22.7140147 100.774113,23.3171359 99.9528764,23.3716646 C99.0358017,23.4179315 98.1187271,23.3749694 97.2016524,23.3881885 L97.2016524,19.301836 Z" id="Combined-Shape-path" fill="#1F80E0" fill-rule="nonzero"></path>
                    <path d="M105.504896,30.2059364 C105.504896,25.9097307 105.503244,21.6135251 105.504896,17.3173195 L107.611689,17.3173195 L107.611689,30.2059364 C106.907772,30.2059364 106.205508,30.2075887 105.504896,30.2059364 L105.504896,30.2059364 Z" id="Shape" fill="#FFFFFF" fill-rule="nonzero"></path>
                    <path d="M111.57907,21.1822521 C112.995165,20.7625459 114.632681,20.9195226 115.858752,21.7771114 C116.822093,22.4479804 117.322766,23.6360465 117.317809,24.7894125 C117.322766,26.5938188 117.317809,28.3998776 117.319461,30.2059364 C116.630416,30.2059364 115.941371,30.2075887 115.252326,30.2059364 C115.250673,29.8391065 115.252326,29.473929 115.26224,29.1070991 C113.963464,31.1560588 110.505018,30.8272338 109.406181,28.7485312 C108.860894,27.6926561 109.012913,26.2947368 109.868849,25.44541 C111.278335,24.0788862 113.560282,23.928519 115.291983,24.7365361 C115.239106,22.7123623 112.0847,22.2116891 111.194064,23.9136475 C110.566157,23.6310894 109.910159,23.4113219 109.303733,23.0858017 C109.782925,22.1869033 110.587638,21.4615055 111.57907,21.1822521 Z" id="Combined-Shape-path" fill="#FFFFFF" fill-rule="nonzero"></path>
                    <path d="M111.90459,26.3195226 C112.952203,25.7643207 114.249327,25.8948592 115.282069,26.4269278 C115.08213,27.7108323 113.814749,28.7716646 112.499449,28.5684211 C111.957466,28.4891065 111.35104,28.1900245 111.220502,27.6116891 C111.124663,27.0911873 111.441922,26.5541616 111.90459,26.3195226 Z" id="Combined-Shape-path" fill="#1F80E0" fill-rule="nonzero"></path>
                    <path d="M53.2960832,21.6019584 C54.8162791,21.3045288 56.4984088,21.7705018 57.546022,22.9387393 C59.1785802,24.6787026 59.0414321,27.7405753 57.2221542,29.298776 C55.5201958,30.8437576 52.6367809,30.7694002 51.0273562,29.123623 C49.2345165,27.3836597 49.3485312,24.125153 51.2983476,22.5454712 C51.8700734,22.0695838 52.5657283,21.7473684 53.2960832,21.6019584 Z" id="Combined-Shape-path" fill="#FFFFFF" fill-rule="nonzero"></path>
                    <path d="M53.4613219,23.4278458 C54.9864749,22.847858 56.6900857,24.1962056 56.6801714,25.7775398 C56.8222766,27.0350061 55.9399021,28.3255202 54.6873929,28.5750306 C53.5059364,28.8509792 52.2666463,28.0330477 51.898164,26.9110771 C51.4189718,25.5825581 52.0600979,23.8706854 53.4613219,23.4278458 Z" id="Combined-Shape-path" fill="#1F80E0" fill-rule="nonzero"></path>
                    <path d="M62.8782742,21.6118727 C64.4364749,21.2896573 66.1764382,21.7705018 67.2323133,22.9916157 C68.7954712,24.7216646 68.674847,27.6943084 66.9134027,29.2442472 C65.1321297,30.947858 61.9529376,30.7561812 60.4029988,28.8344553 C58.9141983,27.0862301 59.0827417,24.1714198 60.822705,22.651224 C61.3960832,22.1274174 62.1165239,21.7671971 62.8782742,21.6118727 Z" id="Combined-Shape-path" fill="#FFFFFF" fill-rule="nonzero"></path>
                    <path d="M63.1839657,23.3997552 C64.5174419,22.9602203 66.0029376,23.9483476 66.2574051,25.2933905 C66.6143207,26.6136475 65.8376989,28.196634 64.471175,28.5370257 C63.19388,28.9385557 61.7910037,28.0049572 61.4853121,26.7408813 C61.078825,25.4123623 61.800918,23.7831089 63.1839657,23.3997552 Z" id="Combined-Shape-path" fill="#1F80E0" fill-rule="nonzero"></path>
                    <path d="M71.2905753,22.2249082 C72.6554468,21.2533048 74.7291922,21.2400857 75.9370869,22.4810282 C75.9304774,22.2463892 75.9271726,22.0117503 75.9238678,21.7787638 L77.8274174,21.7787638 L77.8274174,29.9250306 C77.804284,31.0965728 77.5035496,32.3441248 76.6674419,33.2099755 C75.6198286,34.3088127 73.9360465,34.5864137 72.5034272,34.2493268 C71.2013464,33.9502448 70.1652999,32.9373317 69.623317,31.7426561 C70.2,31.494798 70.7799878,31.2535496 71.3599755,31.0156059 C71.5979192,31.4435741 71.8656059,31.874847 72.2787026,32.1590575 C73.2635251,32.9075887 74.8960832,32.6944308 75.5520808,31.6104651 C75.9684823,30.9594247 75.9337821,30.1580171 75.9370869,29.4160955 C75.1935129,30.204284 74.0550184,30.55459 72.9925337,30.371175 C71.2773562,30.1299266 69.8381273,28.7402693 69.4316401,27.073011 C68.9755814,25.2768666 69.7241126,23.2361689 71.2905753,22.2249082 Z" id="Combined-Shape-path" fill="#FFFFFF" fill-rule="nonzero"></path>
                    <path d="M73.3775398,23.3287026 C75.0679315,23.0197062 76.3716646,24.8703794 76.0395349,26.4219706 C75.9271726,27.7108323 74.6779682,28.8641983 73.3544064,28.5882497 C72.1167687,28.40153 71.2426561,27.1688494 71.29388,25.9510404 C71.2657895,24.7348837 72.1415545,23.5121175 73.3775398,23.3287026 Z" id="Combined-Shape-path" fill="#1F80E0" fill-rule="nonzero"></path>
                    <path d="M83.7429621,22.6132191 C84.9293758,21.4780294 86.8329253,21.1822521 88.305202,21.9142595 C89.4585679,22.5041616 90.202142,23.6641371 90.5689718,24.876989 C88.596022,25.6949204 86.6197674,26.5062424 84.6501224,27.3307834 C85.0070379,27.9322521 85.553978,28.4593635 86.2678091,28.5750306 C87.3121175,28.8228886 88.3944308,28.2643819 88.9595471,27.3869645 C89.480049,27.7290086 89.9988984,28.0710526 90.5111383,28.4263158 C89.9724602,29.196328 89.2222766,29.8324969 88.3299878,30.1464504 C86.8114443,30.6966952 84.9541616,30.4042228 83.7859241,29.2508568 C81.9567319,27.5588127 81.9798654,24.3449204 83.7429621,22.6132191 Z" id="Combined-Shape-path" fill="#FFFFFF" fill-rule="nonzero"></path>
                    <path d="M84.3064146,25.7990208 C84.3031212,24.7001836 85.0219094,23.629437 86.1042228,23.3468788 C86.9006732,23.0907589 87.8408813,23.4311506 88.253978,24.1664627 C86.9353733,24.7034884 85.6233782,25.2603427 84.3064146,25.7990208 Z" id="Combined-Shape-path" fill="#1F80E0" fill-rule="nonzero"></path>
                    <path d="M118.000245,21.4515912 C118.763647,21.4449816 119.528703,21.4482864 120.293758,21.4482864 C121.128213,23.4625459 121.956059,25.4801102 122.788862,27.496022 C123.562179,25.4817625 124.342105,23.4691554 125.110465,21.4532436 C125.900306,21.4433293 126.691799,21.4499388 127.483293,21.4482864 C125.634272,25.7180539 123.768727,29.9828641 121.913097,34.2509792 C121.169523,34.2559364 120.425949,34.2575887 119.682375,34.2493268 C120.366463,32.8051408 121.032375,31.3510404 121.719767,29.9085067 C120.487087,27.0862301 119.23623,24.2722154 118.000245,21.4515912 L118.000245,21.4515912 Z" id="Shape" fill="#FFFFFF" fill-rule="nonzero"></path>
                    <g id="Group" transform="translate(10.905753, 10.053856)">
                        <polygon id="Shape" points="10.7560211 10.2477487 13.920901 7.08165763 13.9201638 7.08165763 10.7560211 10.2477487 0.656861877 0.141633153 0.656124659 0.141633153 10.7560211 10.2492241 0.639905847 20.3708308 0.639905847 20.3708308 10.7560211 10.2492241 13.9349082 13.429331 13.9363826 13.429331"></polygon>
                        <path d="M13.9201638,7.08165763 L1.58944356,0.297282086 C1.2407391,0.106224864 0.917100085,0.0619645043 0.656861877,0.142370825 L10.7567583,10.2477487 L13.9201638,7.08165763 L13.9201638,7.08165763 Z" id="Shape" fill="#D7E69D" fill-rule="nonzero"></path>
                        <path d="M13.9363826,13.429331 L18.1451643,11.1123011 C18.9988636,10.6401906 18.9988636,9.87374869 18.1451643,9.40532654 L13.920901,7.08165763 L10.7567583,10.2477487 L13.9363826,13.429331 L13.9363826,13.429331 Z" id="Shape" fill="#FEEB74" fill-rule="nonzero"></path>
                        <path d="M0.656124659,0.141633153 C0.28161755,0.258923107 0.0383353733,0.639562205 0.0383353733,1.21420921 L0.0405470295,19.3034184 C0.0405470295,19.8714264 0.276457019,20.2454264 0.639905847,20.3700931 L10.7567583,10.2470111 L0.656124659,0.141633153 L0.656124659,0.141633153 Z" id="Shape" fill="#7DBEBB" fill-rule="nonzero"></path>
                        <path d="M0.639905847,20.3708308 C0.903092929,20.4600892 1.2326297,20.4173042 1.58944356,20.2225586 L13.9356454,13.429331 L10.7567583,10.2484864 L0.639905847,20.3708308 L0.639905847,20.3708308 Z" id="Shape" fill="#F36F56" fill-rule="nonzero"></path>
                    </g>
                </g>
            </g>
        </g>
    </g>
</svg>