<?xml version="1.0" encoding="UTF-8"?>
<svg xmlns="http://www.w3.org/2000/svg" xmlns:xlink="http://www.w3.org/1999/xlink" viewBox="0 0 15 15" width="15px" height="15px">
<g id="surface16541755">
<path style=" stroke:none;fill-rule:nonzero;fill:rgb(100%,100%,100%);fill-opacity:1;" d="M 5.625 1.25 C 3.214844 1.25 1.25 3.214844 1.25 5.625 C 1.25 8.035156 3.214844 10 5.625 10 C 6.71875 10 7.714844 9.59375 8.484375 8.925781 L 8.75 9.191406 L 8.75 10 L 12.5 13.75 L 13.75 12.5 L 10 8.75 L 9.191406 8.75 L 8.925781 8.484375 C 9.59375 7.714844 10 6.71875 10 5.625 C 10 3.214844 8.035156 1.25 5.625 1.25 Z M 5.625 2.5 C 7.359375 2.5 8.75 3.890625 8.75 5.625 C 8.75 7.359375 7.359375 8.75 5.625 8.75 C 3.890625 8.75 2.5 7.359375 2.5 5.625 C 2.5 3.890625 3.890625 2.5 5.625 2.5 Z M 5.625 2.5 "/>
</g>
</svg>