<?xml version="1.0" encoding="UTF-8"?>
<svg width="130px" height="85px" viewBox="0 0 130 85" version="1.1" xmlns="http://www.w3.org/2000/svg" xmlns:xlink="http://www.w3.org/1999/xlink">
    <title>icons-footer-social@1x</title>
    <g id="Dark-MVP" stroke="none" stroke-width="1" fill="none" fill-rule="evenodd">
        <g id="icons-footer-social">
            <rect id="Rectangle-path" fill="#192133" x="0" y="0" width="40" height="40" rx="3"></rect>
            <rect id="Rectangle-path" fill="#192133" x="45" y="0" width="40" height="40" rx="3"></rect>
            <rect id="Rectangle-path" fill="#192133" x="90" y="0" width="40" height="40" rx="3"></rect>
            <path d="M24.9,20 L21.9,20 L21.9,31 L16.9,31 L16.9,20 L15,20 L15,16.3 L16.9,16.3 L16.9,13.9 C16.9,10.8 18.2,9 21.9,9 L25.6,9 L25.6,12.7 L23.4,12.7 C22,12.7 21.9,13.2 21.9,14.2 L21.9,16.3 L25.3,16.3 L24.9,20 L24.9,20 L24.9,20 Z M77.6,12.5 C76.6,12.9 75.6,13.2 74.6,13.3 C75.7,12.6 76.5,11.6 76.9,10.4 C75.9,11 74.7,11.4 73.5,11.7 C72.6,10.6 71.2,10 69.7,10 C66.8,10 64.5,12.4 64.5,15.3 C64.5,15.7 64.5,16.1 64.6,16.4 C60.2,16.2 56.4,14.1 53.8,11 C53.3,11.7 53.1,12.6 53.1,13.6 C53.1,15.4 54,17 55.4,18 C54.5,17.9 53.7,17.7 53,17.3 L53,17.4 C53,19.9 54.8,22 57.2,22.5 C56.8,22.6 56.3,22.7 55.9,22.7 C55.5,22.7 55.2,22.7 54.9,22.6 C55.5,24.7 57.5,26.2 59.8,26.3 C58,27.7 55.7,28.5 53.3,28.5 C52.8,28.5 52.4,28.5 52,28.4 C54.3,29.9 57.1,30.8 60,30.8 C69.7,30.8 75,22.8 75,15.9 L75,15.2 C76,14.4 76.9,13.5 77.6,12.5 L77.6,12.5 Z" id="Shape" fill="#B1C3D3"></path>
            <rect id="Rectangle-path" fill="#1F80E0" fill-rule="nonzero" x="0" y="45" width="40" height="40" rx="3"></rect>
            <rect id="Rectangle-path" fill="#1F80E0" fill-rule="nonzero" x="45" y="45" width="40" height="40" rx="3"></rect>
            <rect id="Rectangle-path" fill="#1F80E0" fill-rule="nonzero" x="90" y="45" width="40" height="40" rx="3"></rect>
            <path d="M105.1,57 C100.6261,57 97,60.5883281 97,65.015625 C97,69.4429219 100.6261,73.03125 105.1,73.03125 C109.357,73.03125 112.890625,70.1500781 112.890625,65.015625 C112.890625,64.5890156 112.721875,63.5405273 112.721875,63.5405273 L105.1,63.5405273 L105.1,66.6298828 L109.54375,66.6298828 C109.14865,68.5661016 107.5075,69.9140625 105.1,69.9140625 C102.4117,69.9140625 100.234375,67.7204531 100.234375,65.015625 C100.234375,62.3107969 102.4117,60.1171875 105.1,60.1171875 C106.324,60.1171875 107.45125,60.5640586 108.30625,61.3139648 L110.55625,59.0874023 C109.11535,57.7853086 107.2051,57 105.1,57 L105.1,57 Z M118.6,60.5625 L118.6,64.125 L115,64.125 L115,65.90625 L118.6,65.90625 L118.6,69.46875 L120.4,69.46875 L120.4,65.90625 L124,65.90625 L124,64.125 L120.4,64.125 L120.4,60.5625 L118.6,60.5625 L118.6,60.5625 Z" id="Shape" fill="#FFFFFF" fill-rule="nonzero"></path>
            <path d="M105.1,12 C100.6261,12 97,15.5883281 97,20.015625 C97,24.4429219 100.6261,28.03125 105.1,28.03125 C109.357,28.03125 112.890625,25.1500781 112.890625,20.015625 C112.890625,19.5890156 112.721875,18.5405273 112.721875,18.5405273 L105.1,18.5405273 L105.1,21.6298828 L109.54375,21.6298828 C109.14865,23.5661016 107.5075,24.9140625 105.1,24.9140625 C102.4117,24.9140625 100.234375,22.7204531 100.234375,20.015625 C100.234375,17.3107969 102.4117,15.1171875 105.1,15.1171875 C106.324,15.1171875 107.45125,15.5640586 108.30625,16.3139648 L110.55625,14.0874023 C109.11535,12.7853086 107.2051,12 105.1,12 L105.1,12 Z M118.6,15.5625 L118.6,19.125 L115,19.125 L115,20.90625 L118.6,20.90625 L118.6,24.46875 L120.4,24.46875 L120.4,20.90625 L124,20.90625 L124,19.125 L120.4,19.125 L120.4,15.5625 L118.6,15.5625 L118.6,15.5625 Z" id="Shape-Copy" fill="#B1C3D3"></path>
            <path d="M24.9,65 L21.9,65 L21.9,76 L16.9,76 L16.9,65 L15,65 L15,61.3 L16.9,61.3 L16.9,58.9 C16.9,55.8 18.2,54 21.9,54 L25.6,54 L25.6,57.7 L23.4,57.7 C22,57.7 21.9,58.2 21.9,59.2 L21.9,61.3 L25.3,61.3 L24.9,65 L24.9,65 L24.9,65 Z M77.6,57.5 C76.6,57.9 75.6,58.2 74.6,58.3 C75.7,57.6 76.5,56.6 76.9,55.4 C75.9,56 74.7,56.4 73.5,56.7 C72.6,55.6 71.2,55 69.7,55 C66.8,55 64.5,57.4 64.5,60.3 C64.5,60.7 64.5,61.1 64.6,61.4 C60.2,61.2 56.4,59.1 53.8,56 C53.3,56.7 53.1,57.6 53.1,58.6 C53.1,60.4 54,62 55.4,63 C54.5,62.9 53.7,62.7 53,62.3 L53,62.4 C53,64.9 54.8,67 57.2,67.5 C56.8,67.6 56.3,67.7 55.9,67.7 C55.5,67.7 55.2,67.7 54.9,67.6 C55.5,69.7 57.5,71.2 59.8,71.3 C58,72.7 55.7,73.5 53.3,73.5 C52.8,73.5 52.4,73.5 52,73.4 C54.3,74.9 57.1,75.8 60,75.8 C69.7,75.8 75,67.8 75,60.9 L75,60.2 C76,59.4 76.9,58.5 77.6,57.5 L77.6,57.5 Z" id="Shape" fill="#FFFFFF" fill-rule="nonzero"></path>
        </g>
    </g>
</svg>